<?xml version="1.0" encoding="UTF-8" standalone="no"?><svg xmlns="http://www.w3.org/2000/svg" xmlns:xlink="http://www.w3.org/1999/xlink" contentScriptType="application/ecmascript" contentStyleType="text/css" height="516px" preserveAspectRatio="none" style="width:644px;height:516px;background:#FFFFFF;" version="1.1" viewBox="0 0 644 516" width="644px" zoomAndPan="magnify"><defs><filter height="300%" id="f11s0bmquv22gb" width="300%" x="-1" y="-1"><feGaussianBlur result="blurOut" stdDeviation="2.0"/><feColorMatrix in="blurOut" result="blurOut2" type="matrix" values="0 0 0 0 0 0 0 0 0 0 0 0 0 0 0 0 0 0 .4 0"/><feOffset dx="4.0" dy="4.0" in="blurOut2" result="blurOut3"/><feBlend in="SourceGraphic" in2="blurOut3" mode="normal"/></filter></defs><g><text fill="#000000" font-family="sans-serif" font-size="40" lengthAdjust="spacing" textLength="376" x="130.75" y="53.5234">Delete Article Service</text><line style="stroke:#A80036;stroke-width:1.0;stroke-dasharray:5.0,5.0;" x1="22" x2="22" y1="153.9219" y2="430.7344"/><line style="stroke:#A80036;stroke-width:1.0;stroke-dasharray:5.0,5.0;" x1="98.5" x2="98.5" y1="153.9219" y2="430.7344"/><line style="stroke:#A80036;stroke-width:1.0;stroke-dasharray:5.0,5.0;" x1="171.5" x2="171.5" y1="153.9219" y2="430.7344"/><line style="stroke:#A80036;stroke-width:1.0;stroke-dasharray:5.0,5.0;" x1="352" x2="352" y1="153.9219" y2="430.7344"/><line style="stroke:#A80036;stroke-width:1.0;stroke-dasharray:5.0,5.0;" x1="599.5" x2="599.5" y1="153.9219" y2="430.7344"/><text fill="#000000" font-family="sans-serif" font-size="14" lengthAdjust="spacing" textLength="28" x="5" y="150.8457">user</text><ellipse cx="22" cy="79.3125" fill="#FEFECE" filter="url(#f11s0bmquv22gb)" rx="8" ry="8" style="stroke:#A80036;stroke-width:2.0;"/><path d="M22,87.3125 L22,114.3125 M9,95.3125 L35,95.3125 M22,114.3125 L9,129.3125 M22,114.3125 L35,129.3125 " fill="none" filter="url(#f11s0bmquv22gb)" style="stroke:#A80036;stroke-width:2.0;"/><text fill="#000000" font-family="sans-serif" font-size="14" lengthAdjust="spacing" textLength="28" x="5" y="444.2676">user</text><ellipse cx="22" cy="457.3438" fill="#FEFECE" filter="url(#f11s0bmquv22gb)" rx="8" ry="8" style="stroke:#A80036;stroke-width:2.0;"/><path d="M22,465.3438 L22,492.3438 M9,473.3438 L35,473.3438 M22,492.3438 L9,507.3438 M22,492.3438 L35,507.3438 " fill="none" filter="url(#f11s0bmquv22gb)" style="stroke:#A80036;stroke-width:2.0;"/><rect fill="#FEFECE" filter="url(#f11s0bmquv22gb)" height="31.6094" style="stroke:#A80036;stroke-width:1.5;" width="47" x="73.5" y="117.3125"/><text fill="#000000" font-family="sans-serif" font-size="14" lengthAdjust="spacing" textLength="33" x="80.5" y="138.8457">client</text><rect fill="#FEFECE" filter="url(#f11s0bmquv22gb)" height="31.6094" style="stroke:#A80036;stroke-width:1.5;" width="47" x="73.5" y="429.7344"/><text fill="#000000" font-family="sans-serif" font-size="14" lengthAdjust="spacing" textLength="33" x="80.5" y="451.2676">client</text><rect fill="#FEFECE" filter="url(#f11s0bmquv22gb)" height="31.6094" style="stroke:#A80036;stroke-width:1.5;" width="71" x="134.5" y="117.3125"/><text fill="#000000" font-family="sans-serif" font-size="14" lengthAdjust="spacing" textLength="57" x="141.5" y="138.8457">JWTAuth</text><rect fill="#FEFECE" filter="url(#f11s0bmquv22gb)" height="31.6094" style="stroke:#A80036;stroke-width:1.5;" width="71" x="134.5" y="429.7344"/><text fill="#000000" font-family="sans-serif" font-size="14" lengthAdjust="spacing" textLength="57" x="141.5" y="451.2676">JWTAuth</text><rect fill="#FEFECE" filter="url(#f11s0bmquv22gb)" height="31.6094" style="stroke:#A80036;stroke-width:1.5;" width="54" x="323" y="117.3125"/><text fill="#000000" font-family="sans-serif" font-size="14" lengthAdjust="spacing" textLength="40" x="330" y="138.8457">server</text><rect fill="#FEFECE" filter="url(#f11s0bmquv22gb)" height="31.6094" style="stroke:#A80036;stroke-width:1.5;" width="54" x="323" y="429.7344"/><text fill="#000000" font-family="sans-serif" font-size="14" lengthAdjust="spacing" textLength="40" x="330" y="451.2676">server</text><text fill="#000000" font-family="sans-serif" font-size="14" lengthAdjust="spacing" textLength="59" x="567.5" y="150.8457">database</text><path d="M582,100.3125 C582,90.3125 600,90.3125 600,90.3125 C600,90.3125 618,90.3125 618,100.3125 L618,126.3125 C618,136.3125 600,136.3125 600,136.3125 C600,136.3125 582,136.3125 582,126.3125 L582,100.3125 " fill="#FEFECE" filter="url(#f11s0bmquv22gb)" style="stroke:#000000;stroke-width:1.5;"/><path d="M582,100.3125 C582,110.3125 600,110.3125 600,110.3125 C600,110.3125 618,110.3125 618,100.3125 " fill="none" style="stroke:#000000;stroke-width:1.5;"/><text fill="#000000" font-family="sans-serif" font-size="14" lengthAdjust="spacing" textLength="59" x="567.5" y="444.2676">database</text><path d="M582,457.3438 C582,447.3438 600,447.3438 600,447.3438 C600,447.3438 618,447.3438 618,457.3438 L618,483.3438 C618,493.3438 600,493.3438 600,493.3438 C600,493.3438 582,493.3438 582,483.3438 L582,457.3438 " fill="#FEFECE" filter="url(#f11s0bmquv22gb)" style="stroke:#000000;stroke-width:1.5;"/><path d="M582,457.3438 C582,467.3438 600,467.3438 600,467.3438 C600,467.3438 618,467.3438 618,457.3438 " fill="none" style="stroke:#000000;stroke-width:1.5;"/><rect fill="#EEEEEE" filter="url(#f11s0bmquv22gb)" height="3" style="stroke:#EEEEEE;stroke-width:1.0;" width="637.5" x="0" y="185.0977"/><line style="stroke:#000000;stroke-width:1.0;" x1="0" x2="637.5" y1="185.0977" y2="185.0977"/><line style="stroke:#000000;stroke-width:1.0;" x1="0" x2="637.5" y1="188.0977" y2="188.0977"/><rect fill="#EEEEEE" filter="url(#f11s0bmquv22gb)" height="24.3516" style="stroke:#000000;stroke-width:2.0;" width="152" x="242.75" y="173.9219"/><text fill="#000000" font-family="sans-serif" font-size="13" font-weight="bold" lengthAdjust="spacing" textLength="138" x="248.75" y="191.417">Article Delete Service</text><polygon fill="#A80036" points="87,226.625,97,230.625,87,234.625,91,230.625" style="stroke:#A80036;stroke-width:1.0;"/><line style="stroke:#A80036;stroke-width:1.0;" x1="22" x2="93" y1="230.625" y2="230.625"/><text fill="#000000" font-family="sans-serif" font-size="13" lengthAdjust="spacing" textLength="53" x="29" y="225.7686">operation</text><polygon fill="#A80036" points="340,256.9766,350,260.9766,340,264.9766,344,260.9766" style="stroke:#A80036;stroke-width:1.0;"/><line style="stroke:#A80036;stroke-width:1.0;" x1="99" x2="346" y1="260.9766" y2="260.9766"/><text fill="#000000" font-family="sans-serif" font-size="13" lengthAdjust="spacing" textLength="164" x="106" y="256.1201">DELETE request with token.</text><polygon fill="#A80036" points="183,287.3281,173,291.3281,183,295.3281,179,291.3281" style="stroke:#A80036;stroke-width:1.0;"/><line style="stroke:#A80036;stroke-width:1.0;" x1="177" x2="351" y1="291.3281" y2="291.3281"/><text fill="#000000" font-family="sans-serif" font-size="13" lengthAdjust="spacing" textLength="118" x="189" y="286.4717">check token request</text><polygon fill="#A80036" points="340,317.6797,350,321.6797,340,325.6797,344,321.6797" style="stroke:#A80036;stroke-width:1.0;"/><line style="stroke:#A80036;stroke-width:1.0;" x1="172" x2="346" y1="321.6797" y2="321.6797"/><text fill="#000000" font-family="sans-serif" font-size="13" lengthAdjust="spacing" textLength="103" x="179" y="316.8232">token pass check</text><polygon fill="#A80036" points="588,348.0313,598,352.0313,588,356.0313,592,352.0313" style="stroke:#A80036;stroke-width:1.0;"/><line style="stroke:#A80036;stroke-width:1.0;" x1="352" x2="594" y1="352.0313" y2="352.0313"/><text fill="#000000" font-family="sans-serif" font-size="13" lengthAdjust="spacing" textLength="224" x="359" y="347.1748">check Article exits or not, and delete it</text><polygon fill="#A80036" points="363,378.3828,353,382.3828,363,386.3828,359,382.3828" style="stroke:#A80036;stroke-width:1.0;"/><line style="stroke:#A80036;stroke-width:1.0;" x1="357" x2="599" y1="382.3828" y2="382.3828"/><text fill="#000000" font-family="sans-serif" font-size="13" lengthAdjust="spacing" textLength="145" x="369" y="377.5264">success delete message</text><polygon fill="#A80036" points="110,408.7344,100,412.7344,110,416.7344,106,412.7344" style="stroke:#A80036;stroke-width:1.0;"/><line style="stroke:#A80036;stroke-width:1.0;" x1="104" x2="351" y1="412.7344" y2="412.7344"/><text fill="#000000" font-family="sans-serif" font-size="13" lengthAdjust="spacing" textLength="229" x="116" y="407.8779">respense with success delete message</text><!--MD5=[0f949a6b76f035de1fc26be63745d6aa]
@startuml

skinparam titleFontSize 40
skinparam titleFontColor #black
title Delete Article Service

skinparam backgroundColor #White
skinparam handwritten false

actor user
participant client
participant JWTAuth
participant server
database database

==Article Delete Service==
user -> client: operation
client -> server: DELETE request with token.
server -> JWTAuth: check token request
JWTAuth -> server: token pass check
server -> database: check Article exits or not, and delete it
database -> server: success delete message
server -> client: respense with success delete message

@enduml

PlantUML version 1.2022.0(Wed Jan 12 00:16:42 CST 2022)
(GPL source distribution)
Java Runtime: Java(TM) SE Runtime Environment
JVM: Java HotSpot(TM) 64-Bit Server VM
Default Encoding: UTF-8
Language: zh
Country: CN
--></g></svg>