<?xml version="1.0" encoding="UTF-8" standalone="no"?><svg xmlns="http://www.w3.org/2000/svg" xmlns:xlink="http://www.w3.org/1999/xlink" contentScriptType="application/ecmascript" contentStyleType="text/css" height="516px" preserveAspectRatio="none" style="width:598px;height:516px;background:#FFFFFF;" version="1.1" viewBox="0 0 598 516" width="598px" zoomAndPan="magnify"><defs><filter height="300%" id="f1wa9sxmbee7g3" width="300%" x="-1" y="-1"><feGaussianBlur result="blurOut" stdDeviation="2.0"/><feColorMatrix in="blurOut" result="blurOut2" type="matrix" values="0 0 0 0 0 0 0 0 0 0 0 0 0 0 0 0 0 0 .4 0"/><feOffset dx="4.0" dy="4.0" in="blurOut2" result="blurOut3"/><feBlend in="SourceGraphic" in2="blurOut3" mode="normal"/></filter></defs><g><text fill="#000000" font-family="sans-serif" font-size="40" lengthAdjust="spacing" textLength="361" x="115.25" y="53.5234">Show Article Service</text><line style="stroke:#A80036;stroke-width:1.0;stroke-dasharray:5.0,5.0;" x1="22" x2="22" y1="153.9219" y2="430.7344"/><line style="stroke:#A80036;stroke-width:1.0;stroke-dasharray:5.0,5.0;" x1="98.5" x2="98.5" y1="153.9219" y2="430.7344"/><line style="stroke:#A80036;stroke-width:1.0;stroke-dasharray:5.0,5.0;" x1="171.5" x2="171.5" y1="153.9219" y2="430.7344"/><line style="stroke:#A80036;stroke-width:1.0;stroke-dasharray:5.0,5.0;" x1="380" x2="380" y1="153.9219" y2="430.7344"/><line style="stroke:#A80036;stroke-width:1.0;stroke-dasharray:5.0,5.0;" x1="553.5" x2="553.5" y1="153.9219" y2="430.7344"/><text fill="#000000" font-family="sans-serif" font-size="14" lengthAdjust="spacing" textLength="28" x="5" y="150.8457">user</text><ellipse cx="22" cy="79.3125" fill="#FEFECE" filter="url(#f1wa9sxmbee7g3)" rx="8" ry="8" style="stroke:#A80036;stroke-width:2.0;"/><path d="M22,87.3125 L22,114.3125 M9,95.3125 L35,95.3125 M22,114.3125 L9,129.3125 M22,114.3125 L35,129.3125 " fill="none" filter="url(#f1wa9sxmbee7g3)" style="stroke:#A80036;stroke-width:2.0;"/><text fill="#000000" font-family="sans-serif" font-size="14" lengthAdjust="spacing" textLength="28" x="5" y="444.2676">user</text><ellipse cx="22" cy="457.3438" fill="#FEFECE" filter="url(#f1wa9sxmbee7g3)" rx="8" ry="8" style="stroke:#A80036;stroke-width:2.0;"/><path d="M22,465.3438 L22,492.3438 M9,473.3438 L35,473.3438 M22,492.3438 L9,507.3438 M22,492.3438 L35,507.3438 " fill="none" filter="url(#f1wa9sxmbee7g3)" style="stroke:#A80036;stroke-width:2.0;"/><rect fill="#FEFECE" filter="url(#f1wa9sxmbee7g3)" height="31.6094" style="stroke:#A80036;stroke-width:1.5;" width="47" x="73.5" y="117.3125"/><text fill="#000000" font-family="sans-serif" font-size="14" lengthAdjust="spacing" textLength="33" x="80.5" y="138.8457">client</text><rect fill="#FEFECE" filter="url(#f1wa9sxmbee7g3)" height="31.6094" style="stroke:#A80036;stroke-width:1.5;" width="47" x="73.5" y="429.7344"/><text fill="#000000" font-family="sans-serif" font-size="14" lengthAdjust="spacing" textLength="33" x="80.5" y="451.2676">client</text><rect fill="#FEFECE" filter="url(#f1wa9sxmbee7g3)" height="31.6094" style="stroke:#A80036;stroke-width:1.5;" width="71" x="134.5" y="117.3125"/><text fill="#000000" font-family="sans-serif" font-size="14" lengthAdjust="spacing" textLength="57" x="141.5" y="138.8457">JWTAuth</text><rect fill="#FEFECE" filter="url(#f1wa9sxmbee7g3)" height="31.6094" style="stroke:#A80036;stroke-width:1.5;" width="71" x="134.5" y="429.7344"/><text fill="#000000" font-family="sans-serif" font-size="14" lengthAdjust="spacing" textLength="57" x="141.5" y="451.2676">JWTAuth</text><rect fill="#FEFECE" filter="url(#f1wa9sxmbee7g3)" height="31.6094" style="stroke:#A80036;stroke-width:1.5;" width="54" x="351" y="117.3125"/><text fill="#000000" font-family="sans-serif" font-size="14" lengthAdjust="spacing" textLength="40" x="358" y="138.8457">server</text><rect fill="#FEFECE" filter="url(#f1wa9sxmbee7g3)" height="31.6094" style="stroke:#A80036;stroke-width:1.5;" width="54" x="351" y="429.7344"/><text fill="#000000" font-family="sans-serif" font-size="14" lengthAdjust="spacing" textLength="40" x="358" y="451.2676">server</text><text fill="#000000" font-family="sans-serif" font-size="14" lengthAdjust="spacing" textLength="59" x="521.5" y="150.8457">database</text><path d="M536,100.3125 C536,90.3125 554,90.3125 554,90.3125 C554,90.3125 572,90.3125 572,100.3125 L572,126.3125 C572,136.3125 554,136.3125 554,136.3125 C554,136.3125 536,136.3125 536,126.3125 L536,100.3125 " fill="#FEFECE" filter="url(#f1wa9sxmbee7g3)" style="stroke:#000000;stroke-width:1.5;"/><path d="M536,100.3125 C536,110.3125 554,110.3125 554,110.3125 C554,110.3125 572,110.3125 572,100.3125 " fill="none" style="stroke:#000000;stroke-width:1.5;"/><text fill="#000000" font-family="sans-serif" font-size="14" lengthAdjust="spacing" textLength="59" x="521.5" y="444.2676">database</text><path d="M536,457.3438 C536,447.3438 554,447.3438 554,447.3438 C554,447.3438 572,447.3438 572,457.3438 L572,483.3438 C572,493.3438 554,493.3438 554,493.3438 C554,493.3438 536,493.3438 536,483.3438 L536,457.3438 " fill="#FEFECE" filter="url(#f1wa9sxmbee7g3)" style="stroke:#000000;stroke-width:1.5;"/><path d="M536,457.3438 C536,467.3438 554,467.3438 554,467.3438 C554,467.3438 572,467.3438 572,457.3438 " fill="none" style="stroke:#000000;stroke-width:1.5;"/><rect fill="#EEEEEE" filter="url(#f1wa9sxmbee7g3)" height="3" style="stroke:#EEEEEE;stroke-width:1.0;" width="591.5" x="0" y="185.0977"/><line style="stroke:#000000;stroke-width:1.0;" x1="0" x2="591.5" y1="185.0977" y2="185.0977"/><line style="stroke:#000000;stroke-width:1.0;" x1="0" x2="591.5" y1="188.0977" y2="188.0977"/><rect fill="#EEEEEE" filter="url(#f1wa9sxmbee7g3)" height="24.3516" style="stroke:#000000;stroke-width:2.0;" width="133" x="229.25" y="173.9219"/><text fill="#000000" font-family="sans-serif" font-size="13" font-weight="bold" lengthAdjust="spacing" textLength="119" x="235.25" y="191.417">Article Get Service</text><polygon fill="#A80036" points="87,226.625,97,230.625,87,234.625,91,230.625" style="stroke:#A80036;stroke-width:1.0;"/><line style="stroke:#A80036;stroke-width:1.0;" x1="22" x2="93" y1="230.625" y2="230.625"/><text fill="#000000" font-family="sans-serif" font-size="13" lengthAdjust="spacing" textLength="53" x="29" y="225.7686">operation</text><polygon fill="#A80036" points="368,256.9766,378,260.9766,368,264.9766,372,260.9766" style="stroke:#A80036;stroke-width:1.0;"/><line style="stroke:#A80036;stroke-width:1.0;" x1="99" x2="374" y1="260.9766" y2="260.9766"/><text fill="#000000" font-family="sans-serif" font-size="13" lengthAdjust="spacing" textLength="135" x="106" y="256.1201">Get request with token.</text><polygon fill="#A80036" points="183,287.3281,173,291.3281,183,295.3281,179,291.3281" style="stroke:#A80036;stroke-width:1.0;"/><line style="stroke:#A80036;stroke-width:1.0;" x1="177" x2="379" y1="291.3281" y2="291.3281"/><text fill="#000000" font-family="sans-serif" font-size="13" lengthAdjust="spacing" textLength="118" x="189" y="286.4717">check token request</text><polygon fill="#A80036" points="368,317.6797,378,321.6797,368,325.6797,372,321.6797" style="stroke:#A80036;stroke-width:1.0;"/><line style="stroke:#A80036;stroke-width:1.0;" x1="172" x2="374" y1="321.6797" y2="321.6797"/><text fill="#000000" font-family="sans-serif" font-size="13" lengthAdjust="spacing" textLength="103" x="179" y="316.8232">token pass check</text><polygon fill="#A80036" points="542,348.0313,552,352.0313,542,356.0313,546,352.0313" style="stroke:#A80036;stroke-width:1.0;"/><line style="stroke:#A80036;stroke-width:1.0;" x1="380" x2="548" y1="352.0313" y2="352.0313"/><text fill="#000000" font-family="sans-serif" font-size="13" lengthAdjust="spacing" textLength="150" x="387" y="347.1748">get articles from database</text><polygon fill="#A80036" points="391,378.3828,381,382.3828,391,386.3828,387,382.3828" style="stroke:#A80036;stroke-width:1.0;"/><line style="stroke:#A80036;stroke-width:1.0;" x1="385" x2="553" y1="382.3828" y2="382.3828"/><text fill="#000000" font-family="sans-serif" font-size="13" lengthAdjust="spacing" textLength="81" x="397" y="377.5264">articles object</text><polygon fill="#A80036" points="110,408.7344,100,412.7344,110,416.7344,106,412.7344" style="stroke:#A80036;stroke-width:1.0;"/><line style="stroke:#A80036;stroke-width:1.0;" x1="104" x2="379" y1="412.7344" y2="412.7344"/><text fill="#000000" font-family="sans-serif" font-size="13" lengthAdjust="spacing" textLength="257" x="116" y="407.8779">response with articles object in JSON format</text><!--MD5=[556f27fea0b39745eea6f19c9aa07d11]
@startuml

skinparam titleFontSize 40
skinparam titleFontColor #black
title Show Article Service

skinparam backgroundColor #White
skinparam handwritten false

actor user
participant client
participant JWTAuth
participant server
database database

==Article Get Service==
user -> client: operation
client -> server: Get request with token.
server -> JWTAuth: check token request
JWTAuth -> server: token pass check
server -> database: get articles from database
database -> server: articles object
server -> client: response with articles object in JSON format

@enduml

PlantUML version 1.2022.0(Wed Jan 12 00:16:42 CST 2022)
(GPL source distribution)
Java Runtime: Java(TM) SE Runtime Environment
JVM: Java HotSpot(TM) 64-Bit Server VM
Default Encoding: UTF-8
Language: zh
Country: CN
--></g></svg>