<?xml version="1.0" encoding="UTF-8" standalone="no"?><svg xmlns="http://www.w3.org/2000/svg" xmlns:xlink="http://www.w3.org/1999/xlink" contentScriptType="application/ecmascript" contentStyleType="text/css" height="455px" preserveAspectRatio="none" style="width:689px;height:455px;background:#FFFFFF;" version="1.1" viewBox="0 0 689 455" width="689px" zoomAndPan="magnify"><defs><filter height="300%" id="f8fe96ruvkr4e" width="300%" x="-1" y="-1"><feGaussianBlur result="blurOut" stdDeviation="2.0"/><feColorMatrix in="blurOut" result="blurOut2" type="matrix" values="0 0 0 0 0 0 0 0 0 0 0 0 0 0 0 0 0 0 .4 0"/><feOffset dx="4.0" dy="4.0" in="blurOut2" result="blurOut3"/><feBlend in="SourceGraphic" in2="blurOut3" mode="normal"/></filter></defs><g><text fill="#000000" font-family="sans-serif" font-size="40" lengthAdjust="spacing" textLength="382" x="150.25" y="53.5234">User Register Service</text><line style="stroke:#A80036;stroke-width:1.0;stroke-dasharray:5.0,5.0;" x1="22" x2="22" y1="153.9219" y2="370.0313"/><line style="stroke:#A80036;stroke-width:1.0;stroke-dasharray:5.0,5.0;" x1="98.5" x2="98.5" y1="153.9219" y2="370.0313"/><line style="stroke:#A80036;stroke-width:1.0;stroke-dasharray:5.0,5.0;" x1="381" x2="381" y1="153.9219" y2="370.0313"/><line style="stroke:#A80036;stroke-width:1.0;stroke-dasharray:5.0,5.0;" x1="644.5" x2="644.5" y1="153.9219" y2="370.0313"/><text fill="#000000" font-family="sans-serif" font-size="14" lengthAdjust="spacing" textLength="28" x="5" y="150.8457">user</text><ellipse cx="22" cy="79.3125" fill="#FEFECE" filter="url(#f8fe96ruvkr4e)" rx="8" ry="8" style="stroke:#A80036;stroke-width:2.0;"/><path d="M22,87.3125 L22,114.3125 M9,95.3125 L35,95.3125 M22,114.3125 L9,129.3125 M22,114.3125 L35,129.3125 " fill="none" filter="url(#f8fe96ruvkr4e)" style="stroke:#A80036;stroke-width:2.0;"/><text fill="#000000" font-family="sans-serif" font-size="14" lengthAdjust="spacing" textLength="28" x="5" y="383.5645">user</text><ellipse cx="22" cy="396.6406" fill="#FEFECE" filter="url(#f8fe96ruvkr4e)" rx="8" ry="8" style="stroke:#A80036;stroke-width:2.0;"/><path d="M22,404.6406 L22,431.6406 M9,412.6406 L35,412.6406 M22,431.6406 L9,446.6406 M22,431.6406 L35,446.6406 " fill="none" filter="url(#f8fe96ruvkr4e)" style="stroke:#A80036;stroke-width:2.0;"/><rect fill="#FEFECE" filter="url(#f8fe96ruvkr4e)" height="31.6094" style="stroke:#A80036;stroke-width:1.5;" width="47" x="73.5" y="117.3125"/><text fill="#000000" font-family="sans-serif" font-size="14" lengthAdjust="spacing" textLength="33" x="80.5" y="138.8457">client</text><rect fill="#FEFECE" filter="url(#f8fe96ruvkr4e)" height="31.6094" style="stroke:#A80036;stroke-width:1.5;" width="47" x="73.5" y="369.0313"/><text fill="#000000" font-family="sans-serif" font-size="14" lengthAdjust="spacing" textLength="33" x="80.5" y="390.5645">client</text><rect fill="#FEFECE" filter="url(#f8fe96ruvkr4e)" height="31.6094" style="stroke:#A80036;stroke-width:1.5;" width="54" x="352" y="117.3125"/><text fill="#000000" font-family="sans-serif" font-size="14" lengthAdjust="spacing" textLength="40" x="359" y="138.8457">server</text><rect fill="#FEFECE" filter="url(#f8fe96ruvkr4e)" height="31.6094" style="stroke:#A80036;stroke-width:1.5;" width="54" x="352" y="369.0313"/><text fill="#000000" font-family="sans-serif" font-size="14" lengthAdjust="spacing" textLength="40" x="359" y="390.5645">server</text><text fill="#000000" font-family="sans-serif" font-size="14" lengthAdjust="spacing" textLength="59" x="612.5" y="150.8457">database</text><path d="M627,100.3125 C627,90.3125 645,90.3125 645,90.3125 C645,90.3125 663,90.3125 663,100.3125 L663,126.3125 C663,136.3125 645,136.3125 645,136.3125 C645,136.3125 627,136.3125 627,126.3125 L627,100.3125 " fill="#FEFECE" filter="url(#f8fe96ruvkr4e)" style="stroke:#000000;stroke-width:1.5;"/><path d="M627,100.3125 C627,110.3125 645,110.3125 645,110.3125 C645,110.3125 663,110.3125 663,100.3125 " fill="none" style="stroke:#000000;stroke-width:1.5;"/><text fill="#000000" font-family="sans-serif" font-size="14" lengthAdjust="spacing" textLength="59" x="612.5" y="383.5645">database</text><path d="M627,396.6406 C627,386.6406 645,386.6406 645,386.6406 C645,386.6406 663,386.6406 663,396.6406 L663,422.6406 C663,432.6406 645,432.6406 645,432.6406 C645,432.6406 627,432.6406 627,422.6406 L627,396.6406 " fill="#FEFECE" filter="url(#f8fe96ruvkr4e)" style="stroke:#000000;stroke-width:1.5;"/><path d="M627,396.6406 C627,406.6406 645,406.6406 645,406.6406 C645,406.6406 663,406.6406 663,396.6406 " fill="none" style="stroke:#000000;stroke-width:1.5;"/><rect fill="#EEEEEE" filter="url(#f8fe96ruvkr4e)" height="3" style="stroke:#EEEEEE;stroke-width:1.0;" width="682.5" x="0" y="185.0977"/><line style="stroke:#000000;stroke-width:1.0;" x1="0" x2="682.5" y1="185.0977" y2="185.0977"/><line style="stroke:#000000;stroke-width:1.0;" x1="0" x2="682.5" y1="188.0977" y2="188.0977"/><rect fill="#EEEEEE" filter="url(#f8fe96ruvkr4e)" height="24.3516" style="stroke:#000000;stroke-width:2.0;" width="150" x="266.25" y="173.9219"/><text fill="#000000" font-family="sans-serif" font-size="13" font-weight="bold" lengthAdjust="spacing" textLength="136" x="272.25" y="191.417">User Register Service</text><polygon fill="#A80036" points="87,226.625,97,230.625,87,234.625,91,230.625" style="stroke:#A80036;stroke-width:1.0;"/><line style="stroke:#A80036;stroke-width:1.0;" x1="22" x2="93" y1="230.625" y2="230.625"/><text fill="#000000" font-family="sans-serif" font-size="13" lengthAdjust="spacing" textLength="53" x="29" y="225.7686">operation</text><polygon fill="#A80036" points="369,256.9766,379,260.9766,369,264.9766,373,260.9766" style="stroke:#A80036;stroke-width:1.0;"/><line style="stroke:#A80036;stroke-width:1.0;" x1="99" x2="375" y1="260.9766" y2="260.9766"/><text fill="#000000" font-family="sans-serif" font-size="13" lengthAdjust="spacing" textLength="258" x="106" y="256.1201">POST request with user name and password</text><polygon fill="#A80036" points="633,287.3281,643,291.3281,633,295.3281,637,291.3281" style="stroke:#A80036;stroke-width:1.0;"/><line style="stroke:#A80036;stroke-width:1.0;" x1="381" x2="639" y1="291.3281" y2="291.3281"/><text fill="#000000" font-family="sans-serif" font-size="13" lengthAdjust="spacing" textLength="165" x="388" y="286.4717">check user has exited or not</text><polygon fill="#A80036" points="392,317.6797,382,321.6797,392,325.6797,388,321.6797" style="stroke:#A80036;stroke-width:1.0;"/><line style="stroke:#A80036;stroke-width:1.0;" x1="386" x2="644" y1="321.6797" y2="321.6797"/><text fill="#000000" font-family="sans-serif" font-size="13" lengthAdjust="spacing" textLength="240" x="398" y="316.8232">create AccountInfo in database user table</text><polygon fill="#A80036" points="110,348.0313,100,352.0313,110,356.0313,106,352.0313" style="stroke:#A80036;stroke-width:1.0;"/><line style="stroke:#A80036;stroke-width:1.0;" x1="104" x2="380" y1="352.0313" y2="352.0313"/><text fill="#000000" font-family="sans-serif" font-size="13" lengthAdjust="spacing" textLength="192" x="116" y="347.1748">respense with Success message</text><!--MD5=[79120deaebe869fb8570c88316b4100f]
@startuml

skinparam titleFontSize 40
skinparam titleFontColor #black
title User Register Service

skinparam backgroundColor #White
skinparam handwritten false

actor user
participant client
participant server
database database

==User Register Service==
user -> client: operation
client -> server: POST request with user name and password
server -> database: check user has exited or not
database -> server: create AccountInfo in database user table
server -> client: respense with Success message 

@enduml

PlantUML version 1.2022.0(Wed Jan 12 00:16:42 CST 2022)
(GPL source distribution)
Java Runtime: Java(TM) SE Runtime Environment
JVM: Java HotSpot(TM) 64-Bit Server VM
Default Encoding: UTF-8
Language: zh
Country: CN
--></g></svg>