<?xml version="1.0" encoding="UTF-8" standalone="no"?><svg xmlns="http://www.w3.org/2000/svg" xmlns:xlink="http://www.w3.org/1999/xlink" contentScriptType="application/ecmascript" contentStyleType="text/css" height="516px" preserveAspectRatio="none" style="width:709px;height:516px;background:#FFFFFF;" version="1.1" viewBox="0 0 709 516" width="709px" zoomAndPan="magnify"><defs><filter height="300%" id="fhf739z431jgd" width="300%" x="-1" y="-1"><feGaussianBlur result="blurOut" stdDeviation="2.0"/><feColorMatrix in="blurOut" result="blurOut2" type="matrix" values="0 0 0 0 0 0 0 0 0 0 0 0 0 0 0 0 0 0 .4 0"/><feOffset dx="4.0" dy="4.0" in="blurOut2" result="blurOut3"/><feBlend in="SourceGraphic" in2="blurOut3" mode="normal"/></filter></defs><g><text fill="#000000" font-family="sans-serif" font-size="40" lengthAdjust="spacing" textLength="381" x="160.75" y="53.5234">Create Article Service</text><line style="stroke:#A80036;stroke-width:1.0;stroke-dasharray:5.0,5.0;" x1="22" x2="22" y1="153.9219" y2="430.7344"/><line style="stroke:#A80036;stroke-width:1.0;stroke-dasharray:5.0,5.0;" x1="98.5" x2="98.5" y1="153.9219" y2="430.7344"/><line style="stroke:#A80036;stroke-width:1.0;stroke-dasharray:5.0,5.0;" x1="171.5" x2="171.5" y1="153.9219" y2="430.7344"/><line style="stroke:#A80036;stroke-width:1.0;stroke-dasharray:5.0,5.0;" x1="464" x2="464" y1="153.9219" y2="430.7344"/><line style="stroke:#A80036;stroke-width:1.0;stroke-dasharray:5.0,5.0;" x1="664.5" x2="664.5" y1="153.9219" y2="430.7344"/><text fill="#000000" font-family="sans-serif" font-size="14" lengthAdjust="spacing" textLength="28" x="5" y="150.8457">user</text><ellipse cx="22" cy="79.3125" fill="#FEFECE" filter="url(#fhf739z431jgd)" rx="8" ry="8" style="stroke:#A80036;stroke-width:2.0;"/><path d="M22,87.3125 L22,114.3125 M9,95.3125 L35,95.3125 M22,114.3125 L9,129.3125 M22,114.3125 L35,129.3125 " fill="none" filter="url(#fhf739z431jgd)" style="stroke:#A80036;stroke-width:2.0;"/><text fill="#000000" font-family="sans-serif" font-size="14" lengthAdjust="spacing" textLength="28" x="5" y="444.2676">user</text><ellipse cx="22" cy="457.3438" fill="#FEFECE" filter="url(#fhf739z431jgd)" rx="8" ry="8" style="stroke:#A80036;stroke-width:2.0;"/><path d="M22,465.3438 L22,492.3438 M9,473.3438 L35,473.3438 M22,492.3438 L9,507.3438 M22,492.3438 L35,507.3438 " fill="none" filter="url(#fhf739z431jgd)" style="stroke:#A80036;stroke-width:2.0;"/><rect fill="#FEFECE" filter="url(#fhf739z431jgd)" height="31.6094" style="stroke:#A80036;stroke-width:1.5;" width="47" x="73.5" y="117.3125"/><text fill="#000000" font-family="sans-serif" font-size="14" lengthAdjust="spacing" textLength="33" x="80.5" y="138.8457">client</text><rect fill="#FEFECE" filter="url(#fhf739z431jgd)" height="31.6094" style="stroke:#A80036;stroke-width:1.5;" width="47" x="73.5" y="429.7344"/><text fill="#000000" font-family="sans-serif" font-size="14" lengthAdjust="spacing" textLength="33" x="80.5" y="451.2676">client</text><rect fill="#FEFECE" filter="url(#fhf739z431jgd)" height="31.6094" style="stroke:#A80036;stroke-width:1.5;" width="71" x="134.5" y="117.3125"/><text fill="#000000" font-family="sans-serif" font-size="14" lengthAdjust="spacing" textLength="57" x="141.5" y="138.8457">JWTAuth</text><rect fill="#FEFECE" filter="url(#fhf739z431jgd)" height="31.6094" style="stroke:#A80036;stroke-width:1.5;" width="71" x="134.5" y="429.7344"/><text fill="#000000" font-family="sans-serif" font-size="14" lengthAdjust="spacing" textLength="57" x="141.5" y="451.2676">JWTAuth</text><rect fill="#FEFECE" filter="url(#fhf739z431jgd)" height="31.6094" style="stroke:#A80036;stroke-width:1.5;" width="54" x="435" y="117.3125"/><text fill="#000000" font-family="sans-serif" font-size="14" lengthAdjust="spacing" textLength="40" x="442" y="138.8457">server</text><rect fill="#FEFECE" filter="url(#fhf739z431jgd)" height="31.6094" style="stroke:#A80036;stroke-width:1.5;" width="54" x="435" y="429.7344"/><text fill="#000000" font-family="sans-serif" font-size="14" lengthAdjust="spacing" textLength="40" x="442" y="451.2676">server</text><text fill="#000000" font-family="sans-serif" font-size="14" lengthAdjust="spacing" textLength="59" x="632.5" y="150.8457">database</text><path d="M647,100.3125 C647,90.3125 665,90.3125 665,90.3125 C665,90.3125 683,90.3125 683,100.3125 L683,126.3125 C683,136.3125 665,136.3125 665,136.3125 C665,136.3125 647,136.3125 647,126.3125 L647,100.3125 " fill="#FEFECE" filter="url(#fhf739z431jgd)" style="stroke:#000000;stroke-width:1.5;"/><path d="M647,100.3125 C647,110.3125 665,110.3125 665,110.3125 C665,110.3125 683,110.3125 683,100.3125 " fill="none" style="stroke:#000000;stroke-width:1.5;"/><text fill="#000000" font-family="sans-serif" font-size="14" lengthAdjust="spacing" textLength="59" x="632.5" y="444.2676">database</text><path d="M647,457.3438 C647,447.3438 665,447.3438 665,447.3438 C665,447.3438 683,447.3438 683,457.3438 L683,483.3438 C683,493.3438 665,493.3438 665,493.3438 C665,493.3438 647,493.3438 647,483.3438 L647,457.3438 " fill="#FEFECE" filter="url(#fhf739z431jgd)" style="stroke:#000000;stroke-width:1.5;"/><path d="M647,457.3438 C647,467.3438 665,467.3438 665,467.3438 C665,467.3438 683,467.3438 683,457.3438 " fill="none" style="stroke:#000000;stroke-width:1.5;"/><rect fill="#EEEEEE" filter="url(#fhf739z431jgd)" height="3" style="stroke:#EEEEEE;stroke-width:1.0;" width="702.5" x="0" y="185.0977"/><line style="stroke:#000000;stroke-width:1.0;" x1="0" x2="702.5" y1="185.0977" y2="185.0977"/><line style="stroke:#000000;stroke-width:1.0;" x1="0" x2="702.5" y1="188.0977" y2="188.0977"/><rect fill="#EEEEEE" filter="url(#fhf739z431jgd)" height="24.3516" style="stroke:#000000;stroke-width:2.0;" width="153" x="274.75" y="173.9219"/><text fill="#000000" font-family="sans-serif" font-size="13" font-weight="bold" lengthAdjust="spacing" textLength="139" x="280.75" y="191.417">Article Create Service</text><polygon fill="#A80036" points="87,226.625,97,230.625,87,234.625,91,230.625" style="stroke:#A80036;stroke-width:1.0;"/><line style="stroke:#A80036;stroke-width:1.0;" x1="22" x2="93" y1="230.625" y2="230.625"/><text fill="#000000" font-family="sans-serif" font-size="13" lengthAdjust="spacing" textLength="53" x="29" y="225.7686">operation</text><polygon fill="#A80036" points="452,256.9766,462,260.9766,452,264.9766,456,260.9766" style="stroke:#A80036;stroke-width:1.0;"/><line style="stroke:#A80036;stroke-width:1.0;" x1="99" x2="458" y1="260.9766" y2="260.9766"/><text fill="#000000" font-family="sans-serif" font-size="13" lengthAdjust="spacing" textLength="341" x="106" y="256.1201">POST request with token, Article title, describtion, content.</text><polygon fill="#A80036" points="183,287.3281,173,291.3281,183,295.3281,179,291.3281" style="stroke:#A80036;stroke-width:1.0;"/><line style="stroke:#A80036;stroke-width:1.0;" x1="177" x2="463" y1="291.3281" y2="291.3281"/><text fill="#000000" font-family="sans-serif" font-size="13" lengthAdjust="spacing" textLength="118" x="189" y="286.4717">check token request</text><polygon fill="#A80036" points="452,317.6797,462,321.6797,452,325.6797,456,321.6797" style="stroke:#A80036;stroke-width:1.0;"/><line style="stroke:#A80036;stroke-width:1.0;" x1="172" x2="458" y1="321.6797" y2="321.6797"/><text fill="#000000" font-family="sans-serif" font-size="13" lengthAdjust="spacing" textLength="103" x="179" y="316.8232">token pass check</text><polygon fill="#A80036" points="653,348.0313,663,352.0313,653,356.0313,657,352.0313" style="stroke:#A80036;stroke-width:1.0;"/><line style="stroke:#A80036;stroke-width:1.0;" x1="464" x2="659" y1="352.0313" y2="352.0313"/><text fill="#000000" font-family="sans-serif" font-size="13" lengthAdjust="spacing" textLength="177" x="471" y="347.1748">Create new Article in database</text><polygon fill="#A80036" points="475,378.3828,465,382.3828,475,386.3828,471,382.3828" style="stroke:#A80036;stroke-width:1.0;"/><line style="stroke:#A80036;stroke-width:1.0;" x1="469" x2="664" y1="382.3828" y2="382.3828"/><text fill="#000000" font-family="sans-serif" font-size="13" lengthAdjust="spacing" textLength="150" x="481" y="377.5264">Success Create respense</text><polygon fill="#A80036" points="110,408.7344,100,412.7344,110,416.7344,106,412.7344" style="stroke:#A80036;stroke-width:1.0;"/><line style="stroke:#A80036;stroke-width:1.0;" x1="104" x2="463" y1="412.7344" y2="412.7344"/><text fill="#000000" font-family="sans-serif" font-size="13" lengthAdjust="spacing" textLength="192" x="116" y="407.8779">respense with Success message</text><!--MD5=[0204264124f94039fb79a81dfcd73369]
@startuml

skinparam titleFontSize 40
skinparam titleFontColor #black
title Create Article Service

skinparam backgroundColor #White
skinparam handwritten false

actor user
participant client
participant JWTAuth
participant server
database database

==Article Create Service==
user -> client: operation
client -> server: POST request with token, Article title, describtion, content.
server -> JWTAuth: check token request
JWTAuth -> server: token pass check
server -> database: Create new Article in database
database -> server: Success Create respense
server -> client: respense with Success message 

@enduml

PlantUML version 1.2022.0(Wed Jan 12 00:16:42 CST 2022)
(GPL source distribution)
Java Runtime: Java(TM) SE Runtime Environment
JVM: Java HotSpot(TM) 64-Bit Server VM
Default Encoding: UTF-8
Language: zh
Country: CN
--></g></svg>