<?xml version="1.0" encoding="UTF-8" standalone="no"?><svg xmlns="http://www.w3.org/2000/svg" xmlns:xlink="http://www.w3.org/1999/xlink" contentScriptType="application/ecmascript" contentStyleType="text/css" height="712px" preserveAspectRatio="none" style="width:1116px;height:712px;background:#FFFFFF;" version="1.1" viewBox="0 0 1116 712" width="1116px" zoomAndPan="magnify"><defs><filter height="300%" id="f6qbu9btu35j3" width="300%" x="-1" y="-1"><feGaussianBlur result="blurOut" stdDeviation="2.0"/><feColorMatrix in="blurOut" result="blurOut2" type="matrix" values="0 0 0 0 0 0 0 0 0 0 0 0 0 0 0 0 0 0 .4 0"/><feOffset dx="4.0" dy="4.0" in="blurOut2" result="blurOut3"/><feBlend in="SourceGraphic" in2="blurOut3" mode="normal"/></filter></defs><g><text fill="#000000" font-family="sans-serif" font-size="40" lengthAdjust="spacing" textLength="190" x="459.75" y="53.5234">ChatRoom</text><line style="stroke:#A80036;stroke-width:1.0;stroke-dasharray:5.0,5.0;" x1="22" x2="22" y1="153.9219" y2="626.8438"/><line style="stroke:#A80036;stroke-width:1.0;stroke-dasharray:5.0,5.0;" x1="98.5" x2="98.5" y1="153.9219" y2="626.8438"/><line style="stroke:#A80036;stroke-width:1.0;stroke-dasharray:5.0,5.0;" x1="520" x2="520" y1="153.9219" y2="626.8438"/><line style="stroke:#A80036;stroke-width:1.0;stroke-dasharray:5.0,5.0;" x1="705.5" x2="705.5" y1="153.9219" y2="626.8438"/><line style="stroke:#A80036;stroke-width:1.0;stroke-dasharray:5.0,5.0;" x1="1015.5" x2="1015.5" y1="153.9219" y2="626.8438"/><line style="stroke:#A80036;stroke-width:1.0;stroke-dasharray:5.0,5.0;" x1="1081.5" x2="1081.5" y1="153.9219" y2="626.8438"/><text fill="#000000" font-family="sans-serif" font-size="14" lengthAdjust="spacing" textLength="28" x="5" y="150.8457">user</text><ellipse cx="22" cy="79.3125" fill="#FEFECE" filter="url(#f6qbu9btu35j3)" rx="8" ry="8" style="stroke:#A80036;stroke-width:2.0;"/><path d="M22,87.3125 L22,114.3125 M9,95.3125 L35,95.3125 M22,114.3125 L9,129.3125 M22,114.3125 L35,129.3125 " fill="none" filter="url(#f6qbu9btu35j3)" style="stroke:#A80036;stroke-width:2.0;"/><text fill="#000000" font-family="sans-serif" font-size="14" lengthAdjust="spacing" textLength="28" x="5" y="640.377">user</text><ellipse cx="22" cy="653.4531" fill="#FEFECE" filter="url(#f6qbu9btu35j3)" rx="8" ry="8" style="stroke:#A80036;stroke-width:2.0;"/><path d="M22,661.4531 L22,688.4531 M9,669.4531 L35,669.4531 M22,688.4531 L9,703.4531 M22,688.4531 L35,703.4531 " fill="none" filter="url(#f6qbu9btu35j3)" style="stroke:#A80036;stroke-width:2.0;"/><rect fill="#FEFECE" filter="url(#f6qbu9btu35j3)" height="31.6094" style="stroke:#A80036;stroke-width:1.5;" width="47" x="73.5" y="117.3125"/><text fill="#000000" font-family="sans-serif" font-size="14" lengthAdjust="spacing" textLength="33" x="80.5" y="138.8457">client</text><rect fill="#FEFECE" filter="url(#f6qbu9btu35j3)" height="31.6094" style="stroke:#A80036;stroke-width:1.5;" width="47" x="73.5" y="625.8438"/><text fill="#000000" font-family="sans-serif" font-size="14" lengthAdjust="spacing" textLength="33" x="80.5" y="647.377">client</text><rect fill="#FEFECE" filter="url(#f6qbu9btu35j3)" height="31.6094" style="stroke:#A80036;stroke-width:1.5;" width="54" x="491" y="117.3125"/><text fill="#000000" font-family="sans-serif" font-size="14" lengthAdjust="spacing" textLength="40" x="498" y="138.8457">server</text><rect fill="#FEFECE" filter="url(#f6qbu9btu35j3)" height="31.6094" style="stroke:#A80036;stroke-width:1.5;" width="54" x="491" y="625.8438"/><text fill="#000000" font-family="sans-serif" font-size="14" lengthAdjust="spacing" textLength="40" x="498" y="647.377">server</text><text fill="#000000" font-family="sans-serif" font-size="14" lengthAdjust="spacing" textLength="31" x="687.5" y="150.8457">redis</text><path d="M688,100.3125 C688,90.3125 706,90.3125 706,90.3125 C706,90.3125 724,90.3125 724,100.3125 L724,126.3125 C724,136.3125 706,136.3125 706,136.3125 C706,136.3125 688,136.3125 688,126.3125 L688,100.3125 " fill="#FEFECE" filter="url(#f6qbu9btu35j3)" style="stroke:#000000;stroke-width:1.5;"/><path d="M688,100.3125 C688,110.3125 706,110.3125 706,110.3125 C706,110.3125 724,110.3125 724,100.3125 " fill="none" style="stroke:#000000;stroke-width:1.5;"/><text fill="#000000" font-family="sans-serif" font-size="14" lengthAdjust="spacing" textLength="31" x="687.5" y="640.377">redis</text><path d="M688,653.4531 C688,643.4531 706,643.4531 706,643.4531 C706,643.4531 724,643.4531 724,653.4531 L724,679.4531 C724,689.4531 706,689.4531 706,689.4531 C706,689.4531 688,689.4531 688,679.4531 L688,653.4531 " fill="#FEFECE" filter="url(#f6qbu9btu35j3)" style="stroke:#000000;stroke-width:1.5;"/><path d="M688,653.4531 C688,663.4531 706,663.4531 706,663.4531 C706,663.4531 724,663.4531 724,653.4531 " fill="none" style="stroke:#000000;stroke-width:1.5;"/><text fill="#000000" font-family="sans-serif" font-size="14" lengthAdjust="spacing" textLength="59" x="983.5" y="150.8457">database</text><path d="M998,100.3125 C998,90.3125 1016,90.3125 1016,90.3125 C1016,90.3125 1034,90.3125 1034,100.3125 L1034,126.3125 C1034,136.3125 1016,136.3125 1016,136.3125 C1016,136.3125 998,136.3125 998,126.3125 L998,100.3125 " fill="#FEFECE" filter="url(#f6qbu9btu35j3)" style="stroke:#000000;stroke-width:1.5;"/><path d="M998,100.3125 C998,110.3125 1016,110.3125 1016,110.3125 C1016,110.3125 1034,110.3125 1034,100.3125 " fill="none" style="stroke:#000000;stroke-width:1.5;"/><text fill="#000000" font-family="sans-serif" font-size="14" lengthAdjust="spacing" textLength="59" x="983.5" y="640.377">database</text><path d="M998,653.4531 C998,643.4531 1016,643.4531 1016,643.4531 C1016,643.4531 1034,643.4531 1034,653.4531 L1034,679.4531 C1034,689.4531 1016,689.4531 1016,689.4531 C1016,689.4531 998,689.4531 998,679.4531 L998,653.4531 " fill="#FEFECE" filter="url(#f6qbu9btu35j3)" style="stroke:#000000;stroke-width:1.5;"/><path d="M998,653.4531 C998,663.4531 1016,663.4531 1016,663.4531 C1016,663.4531 1034,663.4531 1034,653.4531 " fill="none" style="stroke:#000000;stroke-width:1.5;"/><text fill="#000000" font-family="sans-serif" font-size="14" lengthAdjust="spacing" textLength="40" x="1058.5" y="150.8457">doctor</text><ellipse cx="1081.5" cy="79.3125" fill="#FEFECE" filter="url(#f6qbu9btu35j3)" rx="8" ry="8" style="stroke:#A80036;stroke-width:2.0;"/><path d="M1081.5,87.3125 L1081.5,114.3125 M1068.5,95.3125 L1094.5,95.3125 M1081.5,114.3125 L1068.5,129.3125 M1081.5,114.3125 L1094.5,129.3125 " fill="none" filter="url(#f6qbu9btu35j3)" style="stroke:#A80036;stroke-width:2.0;"/><text fill="#000000" font-family="sans-serif" font-size="14" lengthAdjust="spacing" textLength="40" x="1058.5" y="640.377">doctor</text><ellipse cx="1081.5" cy="653.4531" fill="#FEFECE" filter="url(#f6qbu9btu35j3)" rx="8" ry="8" style="stroke:#A80036;stroke-width:2.0;"/><path d="M1081.5,661.4531 L1081.5,688.4531 M1068.5,669.4531 L1094.5,669.4531 M1081.5,688.4531 L1068.5,703.4531 M1081.5,688.4531 L1094.5,703.4531 " fill="none" filter="url(#f6qbu9btu35j3)" style="stroke:#A80036;stroke-width:2.0;"/><rect fill="#EEEEEE" filter="url(#f6qbu9btu35j3)" height="3" style="stroke:#EEEEEE;stroke-width:1.0;" width="1109.5" x="0" y="185.0977"/><line style="stroke:#000000;stroke-width:1.0;" x1="0" x2="1109.5" y1="185.0977" y2="185.0977"/><line style="stroke:#000000;stroke-width:1.0;" x1="0" x2="1109.5" y1="188.0977" y2="188.0977"/><rect fill="#EEEEEE" filter="url(#f6qbu9btu35j3)" height="24.3516" style="stroke:#000000;stroke-width:2.0;" width="134" x="487.75" y="173.9219"/><text fill="#000000" font-family="sans-serif" font-size="13" font-weight="bold" lengthAdjust="spacing" textLength="120" x="493.75" y="191.417">User Login Service</text><polygon fill="#A80036" points="87,226.625,97,230.625,87,234.625,91,230.625" style="stroke:#A80036;stroke-width:1.0;"/><line style="stroke:#A80036;stroke-width:1.0;" x1="22" x2="93" y1="230.625" y2="230.625"/><text fill="#000000" font-family="sans-serif" font-size="13" lengthAdjust="spacing" textLength="53" x="29" y="225.7686">operation</text><polygon fill="#A80036" points="508,256.9766,518,260.9766,508,264.9766,512,260.9766" style="stroke:#A80036;stroke-width:1.0;"/><line style="stroke:#A80036;stroke-width:1.0;" x1="99" x2="514" y1="260.9766" y2="260.9766"/><text fill="#000000" font-family="sans-serif" font-size="13" lengthAdjust="spacing" textLength="258" x="106" y="256.1201">POST request with user name and password</text><polygon fill="#A80036" points="1004,287.3281,1014,291.3281,1004,295.3281,1008,291.3281" style="stroke:#A80036;stroke-width:1.0;"/><line style="stroke:#A80036;stroke-width:1.0;" x1="520" x2="1010" y1="291.3281" y2="291.3281"/><text fill="#000000" font-family="sans-serif" font-size="13" lengthAdjust="spacing" textLength="180" x="527" y="286.4717">check username and password</text><polygon fill="#A80036" points="531,317.6797,521,321.6797,531,325.6797,527,321.6797" style="stroke:#A80036;stroke-width:1.0;"/><line style="stroke:#A80036;stroke-width:1.0;" x1="525" x2="1015" y1="321.6797" y2="321.6797"/><text fill="#000000" font-family="sans-serif" font-size="13" lengthAdjust="spacing" textLength="67" x="537" y="316.8232">pass check</text><polygon fill="#A80036" points="110,348.0313,100,352.0313,110,356.0313,106,352.0313" style="stroke:#A80036;stroke-width:1.0;"/><line style="stroke:#A80036;stroke-width:1.0;" x1="104" x2="519" y1="352.0313" y2="352.0313"/><text fill="#000000" font-family="sans-serif" font-size="13" lengthAdjust="spacing" textLength="143" x="116" y="347.1748">respense with new token</text><rect fill="#EEEEEE" filter="url(#f6qbu9btu35j3)" height="3" style="stroke:#EEEEEE;stroke-width:1.0;" width="1109.5" x="0" y="381.207"/><line style="stroke:#000000;stroke-width:1.0;" x1="0" x2="1109.5" y1="381.207" y2="381.207"/><line style="stroke:#000000;stroke-width:1.0;" x1="0" x2="1109.5" y1="384.207" y2="384.207"/><rect fill="#EEEEEE" filter="url(#f6qbu9btu35j3)" height="24.3516" style="stroke:#000000;stroke-width:2.0;" width="238" x="435.75" y="370.0313"/><text fill="#000000" font-family="sans-serif" font-size="13" font-weight="bold" lengthAdjust="spacing" textLength="224" x="441.75" y="387.5264">User And Doctor ChatRoom Service</text><polygon fill="#A80036" points="87,422.7344,97,426.7344,87,430.7344,91,426.7344" style="stroke:#A80036;stroke-width:1.0;"/><line style="stroke:#A80036;stroke-width:1.0;" x1="22" x2="93" y1="426.7344" y2="426.7344"/><text fill="#000000" font-family="sans-serif" font-size="13" lengthAdjust="spacing" textLength="53" x="29" y="421.8779">operation</text><polygon fill="#A80036" points="508,453.0859,518,457.0859,508,461.0859,512,457.0859" style="stroke:#A80036;stroke-width:1.0;"/><line style="stroke:#A80036;stroke-width:1.0;" x1="99" x2="514" y1="457.0859" y2="457.0859"/><text fill="#000000" font-family="sans-serif" font-size="13" lengthAdjust="spacing" textLength="397" x="106" y="452.2295">send GET request to host:/chat/{doctor}, upgrade Http to Websocket</text><polygon fill="#A80036" points="508,483.4375,518,487.4375,508,491.4375,512,487.4375" style="stroke:#A80036;stroke-width:1.0;"/><line style="stroke:#A80036;stroke-width:1.0;" x1="99" x2="514" y1="487.4375" y2="487.4375"/><text fill="#000000" font-family="sans-serif" font-size="13" lengthAdjust="spacing" textLength="241" x="106" y="482.5811">send message to server use JSON format</text><polygon fill="#A80036" points="694,513.7891,704,517.7891,694,521.7891,698,517.7891" style="stroke:#A80036;stroke-width:1.0;"/><line style="stroke:#A80036;stroke-width:1.0;" x1="520" x2="700" y1="517.7891" y2="517.7891"/><text fill="#000000" font-family="sans-serif" font-size="13" lengthAdjust="spacing" textLength="162" x="527" y="512.9326">store the message to cache</text><polygon fill="#A80036" points="1004,544.1406,1014,548.1406,1004,552.1406,1008,548.1406" style="stroke:#A80036;stroke-width:1.0;"/><line style="stroke:#A80036;stroke-width:1.0;" x1="706" x2="1010" y1="548.1406" y2="548.1406"/><text fill="#000000" font-family="sans-serif" font-size="13" lengthAdjust="spacing" textLength="286" x="713" y="543.2842">cron task store data from cache to SQL database</text><polygon fill="#A80036" points="1069.5,574.4922,1079.5,578.4922,1069.5,582.4922,1073.5,578.4922" style="stroke:#A80036;stroke-width:1.0;"/><line style="stroke:#A80036;stroke-width:1.0;" x1="520" x2="1075.5" y1="578.4922" y2="578.4922"/><text fill="#000000" font-family="sans-serif" font-size="13" lengthAdjust="spacing" textLength="100" x="527" y="573.6357">message content</text><polygon fill="#A80036" points="110,604.8438,100,608.8438,110,612.8438,106,608.8438" style="stroke:#A80036;stroke-width:1.0;"/><line style="stroke:#A80036;stroke-width:1.0;" x1="104" x2="519" y1="608.8438" y2="608.8438"/><text fill="#000000" font-family="sans-serif" font-size="13" lengthAdjust="spacing" textLength="142" x="116" y="603.9873">message send response</text><!--MD5=[590213cded6bcd956ad40cce3729e367]
@startuml

skinparam titleFontSize 40
skinparam titleFontColor #black
title ChatRoom

skinparam backgroundColor #White
skinparam handwritten false

actor user
participant client
participant server
database redis
database database
actor doctor

==User Login Service==
user -> client: operation
client -> server: POST request with user name and password
server -> database: check username and password
database -> server: pass check
server -> client: respense with new token 

==User And Doctor ChatRoom Service==
user -> client: operation
client -> server: send GET request to host:/chat/{doctor}, upgrade Http to Websocket
client -> server: send message to server use JSON format
server -> redis: store the message to cache
redis -> database: cron task store data from cache to SQL database
server -> doctor: message content
server -> client: message send response


@enduml

PlantUML version 1.2022.0(Wed Jan 12 00:16:42 CST 2022)
(GPL source distribution)
Java Runtime: Java(TM) SE Runtime Environment
JVM: Java HotSpot(TM) 64-Bit Server VM
Default Encoding: UTF-8
Language: zh
Country: CN
--></g></svg>